# xmcd
#
# Track frame offsets:
#	150
#	27972
#	53231
#	71032
#	99116
#	123680
#	137641
#	169330
#	191537
#	212545
#	230338
#	245413
#	275412
#	296244
#	310790
#
# Disc length: 4378 seconds
#
# Revision: 1
# Processed by: cddbd v1.5.2PL0 Copyright (c) Steve Scherf et al.
# Submitted via: audiograbber 1.83.01
#
DISCID=dd11180f
DTITLE=Grateful Dead - 71-12-15 Hill Auditorium, Ann Arbor MI
DYEAR=1900
DGENRE=
TTITLE0=Bertha
TTITLE1=Me and Bobby McGee
TTITLE2=Mr Charlie
TTITLE3=China Cat Sunflower
TTITLE4=I Know You Rider
TTITLE5=Beat It On Down The Line
TTITLE6=It Hurts Me Too
TTITLE7=Cumberland Blues
TTITLE8=Jack Straw
TTITLE9=You Win Again
TTITLE10=Run Rudolph Run
TTITLE11=Playing In The Band
TTITLE12=Brown-Eyed Women
TTITLE13=Mexicali Blues
TTITLE14=Big Railroad Blues
EXTD=
EXTT0=
EXTT1=
EXTT2=
EXTT3=
EXTT4=
EXTT5=
EXTT6=
EXTT7=
EXTT8=
EXTT9=
EXTT10=
EXTT11=
EXTT12=
EXTT13=
EXTT14=
PLAYORDER=
